<?xml version="1.0" encoding="UTF-8"?>
<svg width="144px" height="40px" viewBox="0 0 144 40" version="1.1" xmlns="http://www.w3.org/2000/svg" xmlns:xlink="http://www.w3.org/1999/xlink">
    <!-- Generator: Sketch 52.6 (67491) - http://www.bohemiancoding.com/sketch -->
    <title>feeltrip-logotype-black@1x</title>
    <desc>Created with Sketch.</desc>
    <g id="feeltrip-logotype-black" stroke="none" stroke-width="1" fill="none" fill-rule="evenodd">
        <path d="M8.02,12.24 L8.98,11.4 L11.34,11.4 L11.5,10.32 C11.766668,9.0666604 12.2733296,7.9200052 13.02,6.88 C13.7666704,5.8399948 14.6466616,5.0133364 15.66,4.4 L20.62,1.4 L24.18,1.4 L23.5,5.4 L18.42,5.4 C18.0466648,5.7466684 17.760001,6.219997 17.56,6.82 C17.359999,7.420003 17.193334,8.0266636 17.06,8.64 L16.58,11.52 L20.62,11.52 L20.34,13 L16.3,13 L13.38,29.76 C13.1666656,30.9866728 12.6333376,32.1066616 11.78,33.12 C10.9266624,34.1333384 9.8733396,35.0666624 8.62,35.92 L3.66,39.4 L1.06,39.4 L1.9,34.76 L6.58,34.76 C6.9266684,34.3333312 7.199999,33.8000032 7.4,33.16 C7.600001,32.5199968 7.766666,31.86667 7.9,31.2 L11.06,13 L7.86,13 L8.02,12.24 Z M30.82,27.04 C31.1666684,26.8799992 31.5666644,26.700001 32.02,26.5 C32.4733356,26.299999 32.9266644,26.0800012 33.38,25.84 C33.8333356,25.5999988 34.2799978,25.3600012 34.72,25.12 C35.1600022,24.8799988 35.5533316,24.6533344 35.9,24.44 L36.5,25.24 C35.699996,25.773336 34.800005,26.3466636 33.8,26.96 C32.799995,27.5733364 31.7933384,28.1599972 30.78,28.72 L27.58,30.6 C26.7266624,30.4933328 25.9066706,30.240002 25.12,29.84 C24.3333294,29.439998 23.640003,28.9133366 23.04,28.26 C22.439997,27.6066634 21.9600018,26.8333378 21.6,25.94 C21.2399982,25.0466622 21.06,24.0400056 21.06,22.92 C21.06,20.5733216 21.693327,18.4266764 22.96,16.48 C24.226673,14.5333236 26.1666536,13.0533384 28.78,12.04 L33.38,10.32 C34.5533392,10.5333344 35.506663,11.0333294 36.24,11.82 C36.973337,12.6066706 37.34,13.6399936 37.34,14.92 C37.34,15.453336 37.3000004,15.9666642 37.22,16.46 C37.1399996,16.9533358 36.966668,17.53333 36.7,18.2 L26.58,21.2 L26.58,21.4 C26.7666676,22.8133404 27.2399962,23.9999952 28,24.96 C28.7600038,25.9200048 29.6999944,26.6133312 30.82,27.04 Z M29.86,12.6 C28.793328,13.2933368 27.9733362,14.2666604 27.4,15.52 C26.8266638,16.7733396 26.5266668,18.1599924 26.5,19.68 L26.5,19.92 C26.5,20.0000004 26.5133332,20.106666 26.54,20.24 L31.3,18.44 C31.4866676,17.9333308 31.5999998,17.4733354 31.64,17.06 C31.6800002,16.6466646 31.7,16.2133356 31.7,15.76 C31.7,14.9333292 31.5200018,14.2333362 31.16,13.66 C30.7999982,13.0866638 30.3666692,12.733334 29.86,12.6 Z M49.06,27.04 C49.4066684,26.8799992 49.8066644,26.700001 50.26,26.5 C50.7133356,26.299999 51.1666644,26.0800012 51.62,25.84 C52.0733356,25.5999988 52.5199978,25.3600012 52.96,25.12 C53.4000022,24.8799988 53.7933316,24.6533344 54.14,24.44 L54.74,25.24 C53.939996,25.773336 53.040005,26.3466636 52.04,26.96 C51.039995,27.5733364 50.0333384,28.1599972 49.02,28.72 L45.82,30.6 C44.9666624,30.4933328 44.1466706,30.240002 43.36,29.84 C42.5733294,29.439998 41.880003,28.9133366 41.28,28.26 C40.679997,27.6066634 40.2000018,26.8333378 39.84,25.94 C39.4799982,25.0466622 39.3,24.0400056 39.3,22.92 C39.3,20.5733216 39.933327,18.4266764 41.2,16.48 C42.466673,14.5333236 44.4066536,13.0533384 47.02,12.04 L51.62,10.32 C52.7933392,10.5333344 53.746663,11.0333294 54.48,11.82 C55.213337,12.6066706 55.58,13.6399936 55.58,14.92 C55.58,15.453336 55.5400004,15.9666642 55.46,16.46 C55.3799996,16.9533358 55.206668,17.53333 54.94,18.2 L44.82,21.2 L44.82,21.4 C45.0066676,22.8133404 45.4799962,23.9999952 46.24,24.96 C47.0000038,25.9200048 47.9399944,26.6133312 49.06,27.04 Z M48.1,12.6 C47.033328,13.2933368 46.2133362,14.2666604 45.64,15.52 C45.0666638,16.7733396 44.7666668,18.1599924 44.74,19.68 L44.74,19.92 C44.74,20.0000004 44.7533332,20.106666 44.78,20.24 L49.54,18.44 C49.7266676,17.9333308 49.8399998,17.4733354 49.88,17.06 C49.9200002,16.6466646 49.94,16.2133356 49.94,15.76 C49.94,14.9333292 49.7600018,14.2333362 49.4,13.66 C49.0399982,13.0866638 48.6066692,12.733334 48.1,12.6 Z M58.86,4.84 L58.5,3.84 L66.66,1.4 L67.94,2.44 L63.46,27.88 L66.94,25.56 L67.54,26.32 L61.7,30.64 L57.98,29.04 L62.38,3.96 L58.86,4.84 Z M78.1,12.96 L78.1,12.24 L78.9,11.44 L81.26,11.44 L81.26,8.72 L85.9,5.72 L86.82,5.72 L86.82,11.52 L92.06,11.52 L92.06,12.96 L86.82,12.96 L86.82,24.72 C86.82,25.4933372 87.0133314,26.0999978 87.4,26.54 C87.7866686,26.9800022 88.2999968,27.2 88.94,27.2 C89.5533364,27.2 90.093331,27.1200008 90.56,26.96 C91.026669,26.7999992 91.5533304,26.5733348 92.14,26.28 L92.7,27.44 L86.66,30.6 C84.9799916,30.6 83.6533382,30.166671 82.68,29.3 C81.7066618,28.433329 81.22,27.0800092 81.22,25.24 L81.22,12.96 L78.1,12.96 Z M101.94,17.12 L105.78,10.52 L109.22,10.52 L109.22,16.08 L104.58,16.08 C104.313332,16.213334 103.973335,16.5199976 103.56,17 C103.146665,17.4800024 102.806668,17.8666652 102.54,18.16 L102.1,18.68 L102.1,28.32 L105.94,28.72 L105.82,30.04 L99.42,29.96 L94.38,30.04 L94.3,28.72 L96.54,28.32 L96.54,13.12 L94.3,13.32 L94.14,12.08 L100.18,10.72 L101.58,10.64 L101.94,17.12 Z M116.18,29.96 L111.22,30.04 L111.14,28.72 L113.34,28.32 L113.34,13.08 L111.14,13.36 L110.98,12.04 L117.38,10.72 L118.94,10.68 L118.94,28.32 L121.22,28.72 L121.14,30.04 L116.18,29.96 Z M113.94,2.12 L117.58,1.88 L118.9,2.12 L119.18,4.76 L118.66,7.12 L115.02,7.36 L113.74,7.12 L113.42,4.36 L113.94,2.12 Z M133.86,30.6 C133.246664,30.6 132.666669,30.533334 132.12,30.4 C131.573331,30.266666 131.060002,30.0533348 130.58,29.76 L130.58,37.6 L134.06,37.96 L133.98,39.24 L127.86,39.16 L122.86,39.24 L122.78,37.96 L124.98,37.6 L124.98,13.08 L122.78,13.32 L122.62,12.08 L128.78,10.76 L130.26,10.68 L130.54,14.24 L135.94,10.32 C136.980005,10.32 137.953329,10.5333312 138.86,10.96 C139.766671,11.3866688 140.566663,11.9866628 141.26,12.76 C141.953337,13.5333372 142.499998,14.4733278 142.9,15.58 C143.300002,16.6866722 143.5,17.9199932 143.5,19.28 C143.5,22.3200152 142.746674,24.7999904 141.24,26.72 C139.733326,28.6400096 137.27335,29.93333 133.86,30.6 Z M137.46,21.24 C137.46,18.8933216 137.140003,17.1266726 136.5,15.94 C135.859997,14.7533274 134.993339,14.16 133.9,14.16 C133.419998,14.16 132.986669,14.259999 132.6,14.46 C132.213331,14.660001 131.780002,14.9333316 131.3,15.28 L130.58,15.76 L130.58,27.48 C130.926668,27.9066688 131.333331,28.2399988 131.8,28.48 C132.266669,28.7200012 132.779997,28.84 133.34,28.84 C134.620006,28.8133332 135.626663,28.13334 136.36,26.8 C137.093337,25.46666 137.46,23.6133452 137.46,21.24 Z" id="feel-trip" fill="#000000"></path>
    </g>
</svg>