<svg version="1" xmlns="http://www.w3.org/2000/svg" width="346.667" height="346.667" viewBox="0 0 260.000000 260.000000"><path d="M95 21.1C61.7 52 63.4 50.3 57.8 57.2c-7 8.6-10.5 17.7-11.3 29.3-.1 2.7-.3 5.3-.4 5.7-.1.5-3.7.8-8 .8-7.6 0-8 .1-10.5 3.1-1.6 1.9-2.6 4.3-2.6 6.2v3.2h21.5v58.8c0 36.6-.3 59.1-.9 59.5-.6.3-4.6 1.3-9.1 2.1-6.5 1.3-8 1.9-7.9 3.3.1 1 .2 3.3.3 5l.1 3.3 44.3-.1h44.2l.6-4.2c.8-6.4 1.6-6-16.1-7.8-4.1-.4-8.2-.8-9-1-.8-.1-1.8-.3-2.2-.3-.5-.1-.8-26.8-.8-59.4v-59.4l26.8.2c14.7.1 26.9.3 27.2.3.3.1.5 22.4.5 49.5-.1 27 .3 51.9.7 55.1 2 14.8 11 25.1 25.8 29.5 5.5 1.6 15.9 2.4 17.3 1.4.6-.6 8-4.5 16.2-8.8 18.8-9.7 27.8-14.6 28.7-15.4.3-.3-.3-2.5-1.5-4.8l-2.2-4.2-6.9 3c-17.1 7.3-28.3 5.2-33.3-6.4-1.8-4.1-1.9-99.7-.1-99.8.7 0 9.4-.1 19.3-.1s18.5-.5 19.1-1c1.5-1.1 1.4-9.8 0-9.9-.6-.1-9.9-.2-20.6-.3l-19.4-.1-.2-21.5c0-11.8-.2-22-.3-22.7 0-.7-1.5-1-3.5-.9-2.4.2-8.7 3.7-20.3 11.1-9.2 6-17.2 11.2-17.7 11.7-.5.4-.9 5.6-.9 11.5v10.8H89.9l.2-12.7c.1-13.8 1.7-24.2 4.5-30.1l1.8-3.7h17l17.1-.1 8.1-7.7C143 35 150.5 28 155.1 23.8l8.4-7.8h-63L95 21.1z"/></svg>